<svg xmlns="http://www.w3.org/2000/svg" viewBox="0 0 100 100" width="100" height="100">
  <ellipse cx="53.76" cy="45.68" rx="25" ry="25" fill="none" stroke="#ffffff" stroke-width="1" transform="translate(-3.76 4.32)"/>
  <ellipse cx="53.76" cy="45.68" rx="20" ry="20" fill="none" stroke="#ffffff" stroke-width="2" transform="translate(-3.76 4.32)"/>
  <ellipse cx="53.76" cy="45.68" rx="15" ry="15" fill="none" stroke="#ffffff" stroke-width="3" transform="translate(-3.76 4.32)"/>
  <ellipse cx="53.76" cy="45.68" rx="9" ry="9" fill="none" stroke="#ffffff" stroke-width="4" transform="translate(-3.76 4.32)"/>
  <ellipse cx="53.76" cy="45.68" rx="5" ry="5" fill="#ffffff" stroke="#ffffff" stroke-width="0" transform="translate(-3.76 4.32)"/>
  <line x1="50" y1="50" x2="50" y2="20" fill="none" stroke="#ffffff" stroke-width="1.5" stroke-linecap="round"/>
  <line x1="50" y1="25" x2="45.93" y2="20" fill="none" stroke="#ffffff" stroke-width="1.5" stroke-linecap="round"/>
  <line x1="50" y1="25" x2="45.93" y2="20" fill="none" stroke="#ffffff" stroke-width="1.5" stroke-linecap="round" transform="translate(100 0) scale(-1 1)"/>
  <line x1="50" y1="50" x2="50" y2="20" fill="none" stroke="#ffffff" stroke-width="1.5" stroke-linecap="round" transform="translate(0 100) scale(1 -1)"/>
  <line x1="50" y1="25" x2="45.93" y2="20" fill="none" stroke="#ffffff" stroke-width="1.5" stroke-linecap="round" transform="translate(0 100) scale(1 -1)"/>
  <line x1="50" y1="25" x2="45.93" y2="20" fill="none" stroke="#ffffff" stroke-width="1.5" stroke-linecap="round" transform="translate(100 100) rotate(-180)"/>
  <line x1="50" y1="50" x2="50" y2="20" fill="none" stroke="#ffffff" stroke-width="1.5" stroke-linecap="round" transform="translate(100 0) rotate(90)"/>
  <line x1="50" y1="25" x2="45.93" y2="20" fill="none" stroke="#ffffff" stroke-width="1.5" stroke-linecap="round" transform="translate(100 0) rotate(90)"/>
  <line x1="50" y1="25" x2="45.93" y2="20" fill="none" stroke="#ffffff" stroke-width="1.5" stroke-linecap="round" transform="translate(100 100) rotate(-90) scale(1 -1)"/>
  <line x1="50" y1="50" x2="50" y2="20" fill="none" stroke="#ffffff" stroke-width="1.5" stroke-linecap="round" transform="translate(0 100) rotate(-90)"/>
  <line x1="50" y1="25" x2="45.93" y2="20" fill="none" stroke="#ffffff" stroke-width="1.5" stroke-linecap="round" transform="translate(0 100) rotate(-90)"/>
  <line x1="50" y1="25" x2="45.93" y2="20" fill="none" stroke="#ffffff" stroke-width="1.5" stroke-linecap="round" transform="rotate(90) scale(1 -1)"/>
</svg>